# xmcd
#
# Track frame offsets:
#	150
#	20484
#	40118
#	57676
#	73549
#	89420
#	107046
#	123460
#	148758
#	166052
#	184900
#	198385
#	214725
#	232929
#	248694
#	266250
#	283440
#
# Disc length: 3984 seconds
# Revision: 0
# Processed by: cddbd v1.5.2PL0 Copyright (c) Steve Scherf et al.
# Submitted via: dBpowerAMP V12.0
#
DISCID=fc0f8e11
DTITLE=Various Artist - Totally Country
DYEAR=2001
DGENRE=Country
TTITLE0=Brooks and Dunn - Only In America
TTITLE1=Montgomery Gentry - She Couldn't Change Me
TTITLE2=Lonestar - With Me
TTITLE3=Dixie Chicks - Without You
TTITLE4=Trick Pony - On A Night Like This
TTITLE5=Kenny Chesney - I Lost It
TTITLE6=Tammy Cochran - Angels In Waiting
TTITLE7=Sara Evans - Born To Fly
TTITLE8=Blake Shelton - Austin
TTITLE9=Billy Gilman - One Voice
TTITLE10=Keith Urban - Where The Blacktop Ends
TTITLE11=Diamond Rio - One More Day
TTITLE12=Travis Tritt - It's A Great Day To Be Alive
TTITLE13=Dwight Yoakam - I Want You To Want Me
TTITLE14=John Michael Montgomery - The Little Girl
TTITLE15=Kenny Rogers - Buy Me A Rose
TTITLE16=Martina McBride - There You Are
EXTD=
EXTT0=
EXTT1=
EXTT2=
EXTT3=
EXTT4=
EXTT5=
EXTT6=
EXTT7=
EXTT8=
EXTT9=
EXTT10=
EXTT11=
EXTT12=
EXTT13=
EXTT14=
EXTT15=
EXTT16=
PLAYORDER=
